<svg width="1024" height="1024" viewBox="0 0 1024 1024" xmlns="http://www.w3.org/2000/svg">
  <rect width="1024" height="1024" rx="228" fill="#000"/>
  <g transform="translate(365, 740) scale(55)">
    <path fill="#fff" d="M1.21943 -1.50635C1.44658 -0.3467 2.17584 0.143462 2.97684 0.143462C3.41918 0.143462 4.12453 -0.0119552 4.96139 -0.633624C5.23636 -0.860772 5.24832 -0.872727 5.24832 -0.956413C5.24832 -1.02814 5.10486 -1.2792 4.96139 -1.2792C4.91357 -1.2792 4.88966 -1.2792 4.77011 -1.15965C4.31582 -0.789041 3.63437 -0.286924 3.00075 -0.286924C2.30735 -0.286924 2.28344 -1.25529 2.28344 -1.54222C2.28344 -1.93674 2.33126 -2.21171 2.39103 -2.57036C2.47472 -2.666 2.72578 -2.8812 2.80946 -2.97684C3.44309 -3.59851 5.34396 -5.49938 5.34396 -7.23288C5.34396 -8.14147 4.8538 -8.39253 4.42341 -8.39253C2.58232 -8.39253 1.1477 -4.49514 1.1477 -2.15193C0.944458 -1.9726 0.406476 -1.53026 0.203238 -1.33898C0.0478207 -1.19552 0.0358655 -1.18356 0.0358655 -1.11183C0.0358655 -1.05205 0.179328 -0.789041 0.310834 -0.789041C0.37061 -0.789041 0.394521 -0.789041 0.561893 -0.944458L1.21943 -1.50635ZM2.59427 -3.51482C3.09639 -5.51133 3.15616 -5.73848 3.3594 -6.36015C3.44309 -6.61121 3.88543 -7.96214 4.41146 -7.96214C4.71034 -7.96214 4.80598 -7.72304 4.80598 -7.34047C4.80598 -6.89813 4.67447 -6.08518 3.82565 -4.93748C3.3594 -4.29191 2.73773 -3.64633 2.59427 -3.51482Z"/>
  </g>
</svg>
