<svg width="961" height="1259" viewBox="0 0 961 1259" fill="none" xmlns="http://www.w3.org/2000/svg">
<mask id="mask0_219_25" style="mask-type:luminance" maskUnits="userSpaceOnUse" x="0" y="0" width="961" height="1259">
<path d="M0 0H961V1258.04H0V0Z" fill="white"/>
</mask>
<g mask="url(#mask0_219_25)">
<path d="M334.385 761.105L286.951 798.06C278.902 804.874 272.865 808.281 268.84 808.281C264.815 808.281 260.503 805.398 255.903 799.632C251.304 793.866 249.004 789.673 249.004 787.052C249.004 783.907 253.029 778.927 261.078 772.113C266.828 767.395 278.902 757.829 297.3 743.414C315.699 728.999 326.336 720.743 329.21 718.646C329.21 665.704 339.416 607.782 359.827 544.88C380.238 481.978 409.273 426.808 446.933 379.37C484.593 331.931 524.121 308.212 565.518 308.212C583.916 308.212 599.584 314.109 612.521 325.903C625.457 337.697 631.925 357.223 631.925 384.48C631.925 462.059 570.98 555.364 449.089 664.393C447.364 666.49 442.477 670.946 434.428 677.76C426.378 684.574 421.204 689.03 418.904 691.127C413.729 719.433 411.142 741.972 411.142 758.746C411.142 813.785 428.391 841.305 462.888 841.305C496.81 841.305 539.357 822.172 590.528 783.907C596.278 778.665 600.878 776.044 604.327 776.044C608.927 776.044 613.527 778.796 618.126 784.3C622.726 789.804 625.026 794.128 625.026 797.274C625.026 799.894 624.02 802.253 622.007 804.35C619.995 806.447 614.102 811.164 604.327 818.503C553.731 852.575 506.01 869.611 461.163 869.611C430.115 869.611 403.236 860.569 380.525 842.484C357.815 824.4 342.434 797.274 334.385 761.105ZM433.565 629.011C462.313 604.899 491.923 573.71 522.396 535.445C569.543 477.261 593.116 424.58 593.116 377.404C593.116 350.146 583.629 336.518 564.655 336.518C539.932 336.518 514.634 371.638 488.761 441.878C478.412 470.708 460.013 533.086 433.565 629.011Z" fill="black"/>
</g>
</svg>
